<?xml version="1.0" standalone="no"?>
<!DOCTYPE svg PUBLIC "-//W3C//DTD SVG 20010904//EN"
 "http://www.w3.org/TR/2001/REC-SVG-20010904/DTD/svg10.dtd">
<svg version="1.0" xmlns="http://www.w3.org/2000/svg"
 width="400.000000pt" height="400.000000pt" viewBox="0 0 400.000000 400.000000"
 preserveAspectRatio="xMidYMid meet">
<metadata>
Created by potrace 1.14, written by Peter Selinger 2001-2017
</metadata>
<g transform="translate(0.000000,400.000000) scale(0.100000,-0.100000)"
fill="#000000" stroke="none">
<path d="M104 3958 c4 -24 13 -108 22 -188 21 -198 67 -458 99 -566 30 -101
38 -128 59 -200 8 -28 23 -69 35 -92 11 -22 30 -75 42 -117 11 -42 27 -93 35
-113 16 -40 19 -46 122 -267 39 -82 78 -177 87 -210 9 -33 24 -80 34 -105 11
-25 30 -74 42 -109 13 -35 30 -66 37 -68 6 -3 24 3 40 13 56 37 291 8 417 -52
208 -98 417 -269 536 -440 41 -58 89 -127 108 -152 19 -26 57 -89 83 -140 27
-51 60 -111 73 -133 14 -21 25 -44 25 -50 0 -6 10 -24 21 -41 12 -16 41 -70
65 -119 48 -99 94 -150 164 -181 25 -12 61 -34 80 -49 19 -16 43 -29 53 -29
21 0 56 -24 132 -93 53 -48 74 -93 59 -130 -9 -25 -30 -29 -184 -33 -213 -6
-221 -11 -139 -72 116 -87 147 -116 179 -167 l35 -55 671 0 670 0 32 118 c18
64 32 133 32 152 0 52 -27 171 -50 221 -11 24 -20 56 -20 71 0 15 -11 53 -25
84 -34 77 -43 153 -21 186 9 14 21 50 27 79 5 30 13 67 16 83 5 25 3 28 -11
23 -10 -4 -19 -7 -21 -7 -2 0 -28 -35 -58 -77 -31 -43 -88 -112 -129 -154 -69
-71 -76 -76 -126 -82 -29 -3 -65 -2 -80 4 -72 27 -166 29 -226 4 -17 -8 -19
-5 -13 24 5 25 3 33 -11 37 -93 31 -143 84 -283 299 -36 55 -135 206 -220 335
-263 398 -355 554 -390 660 -10 30 -32 91 -50 135 -37 94 -55 187 -41 212 7
12 4 24 -11 45 -19 26 -19 29 -4 46 10 10 14 26 11 39 -3 12 -1 38 6 57 9 29
16 83 20 158 0 4 8 12 18 17 16 8 17 1 16 -105 -1 -63 -4 -117 -8 -121 -15
-15 -5 -34 14 -28 16 5 20 2 20 -17 1 -13 7 -34 15 -48 8 -14 14 -40 15 -58 1
-95 61 -269 115 -332 14 -17 86 -157 108 -211 19 -46 120 -219 150 -256 12
-16 40 -54 61 -86 21 -31 91 -110 155 -175 89 -89 124 -132 145 -177 15 -33
49 -105 76 -160 26 -55 56 -121 65 -147 14 -39 21 -48 41 -48 22 0 24 4 24 45
0 25 -4 53 -9 63 -5 9 -15 36 -22 59 -6 24 -21 50 -31 60 -18 16 -18 17 12 44
24 22 30 36 30 68 0 33 -5 43 -24 53 -37 20 -292 304 -397 443 -64 85 -168
247 -218 337 -54 99 -81 225 -81 379 0 99 3 115 26 162 15 29 41 68 59 89 52
57 59 75 36 88 -11 5 -40 10 -65 10 -24 0 -67 5 -95 12 -28 6 -54 8 -58 4 -4
-3 2 -25 14 -49 21 -44 17 -87 -10 -87 -20 0 -40 90 -32 143 5 32 2 53 -9 76
l-17 32 123 -2 c137 -2 184 -14 193 -52 10 -38 -2 -132 -21 -168 -35 -66 -20
-432 21 -522 22 -51 85 -160 104 -182 9 -11 32 -42 51 -70 40 -60 149 -185
160 -185 4 0 10 24 13 53 4 28 10 75 16 102 11 60 15 267 6 310 -5 22 0 43 17
75 20 38 34 49 115 90 112 55 138 80 213 192 45 67 63 107 83 180 38 135 60
254 61 323 l1 59 -62 41 c-33 22 -94 58 -134 80 -194 106 -205 113 -279 156
-25 15 -70 37 -100 50 -30 13 -78 39 -105 58 -69 49 -86 59 -115 71 -58 24
-93 46 -97 61 -3 9 -27 31 -55 49 -48 31 -50 35 -44 68 4 29 1 39 -24 62 -17
16 -30 37 -30 49 0 14 -6 21 -19 21 -20 0 -61 44 -61 65 0 7 -8 23 -19 36 -10
13 -24 41 -32 62 l-13 37 -394 0 c-351 0 -393 -2 -382 -15 14 -17 97 -79 146
-110 101 -63 217 -147 339 -245 39 -31 103 -83 144 -116 178 -142 546 -487
571 -535 16 -28 12 -76 -6 -83 -26 -10 -68 -7 -89 7 -28 19 -111 41 -124 32
-7 -3 -28 -8 -49 -10 -20 -1 -68 -6 -107 -10 l-70 -7 -18 31 c-10 16 -37 43
-60 60 -55 39 -321 186 -418 231 -42 20 -87 43 -100 52 -70 45 -459 212 -675
289 -179 63 -276 81 -446 83 -129 1 -160 4 -173 17 -17 17 -75 181 -96 272
l-14 57 -73 0 -73 0 5 -42z m688 -684 c32 -43 73 -102 91 -130 34 -50 80 -94
99 -94 6 0 21 9 34 19 13 11 70 33 127 50 56 18 117 38 135 46 38 17 61 19 82
5 36 -22 -38 -89 -140 -125 -24 -9 -80 -37 -122 -63 -43 -26 -107 -64 -141
-84 -34 -21 -69 -38 -78 -38 -31 0 -170 351 -185 467 l-7 57 24 -15 c13 -9 50
-52 81 -95z m201 42 c12 -8 42 -17 66 -21 67 -11 113 -33 109 -52 -2 -9 -24
-27 -49 -40 -40 -21 -48 -22 -76 -11 -37 16 -103 92 -103 119 0 22 22 25 53 5z
m391 -381 c9 -18 16 -41 16 -50 0 -9 12 -40 26 -69 14 -28 28 -75 31 -104 l6
-53 -51 -49 c-28 -27 -75 -63 -104 -80 -29 -17 -60 -36 -69 -42 -13 -9 -24 -6
-51 15 -43 33 -83 104 -104 187 -15 58 -15 66 1 106 12 31 24 46 41 50 39 10
51 -1 74 -70 12 -36 23 -66 25 -66 2 0 10 -3 18 -6 24 -9 38 31 47 133 7 77
12 99 30 118 27 29 44 24 64 -20z m323 -254 c14 -21 23 -49 23 -72 0 -36 -6
-43 -99 -124 -116 -100 -136 -136 -125 -222 4 -37 12 -58 25 -66 11 -7 19 -23
19 -40 0 -15 11 -49 24 -75 61 -122 27 -199 -42 -94 -18 26 -57 83 -87 127
-30 44 -70 110 -90 147 -19 36 -39 69 -45 73 -21 13 -10 46 22 63 17 9 47 31
67 47 20 17 53 43 74 59 61 44 108 96 124 134 38 91 70 103 110 43z m134 -278
c14 -106 -150 -244 -230 -194 -25 16 -3 55 88 149 70 74 94 93 113 90 19 -2
24 -11 29 -45z m66 -251 c17 -9 51 -28 75 -41 58 -31 106 -78 124 -121 8 -19
24 -45 36 -57 14 -15 19 -29 15 -45 -8 -30 -192 -221 -234 -242 -63 -32 -49
12 47 145 40 54 41 58 34 110 -12 89 -72 130 -99 67 -14 -34 -120 -118 -149
-118 -28 0 -27 19 3 45 30 27 35 48 44 177 4 53 29 98 55 98 9 0 31 -8 49 -18z
m-1087 -92 c0 -5 -7 -10 -15 -10 -8 0 -15 5 -15 10 0 6 7 10 15 10 8 0 15 -4
15 -10z m387 -56 c54 -26 108 -51 121 -57 12 -6 22 -16 22 -24 0 -20 -44 -15
-81 10 -35 24 -58 35 -171 83 -38 16 -68 33 -68 38 0 18 82 -5 177 -50z m1047
-299 c40 -41 27 -84 -35 -116 -58 -29 -89 -20 -89 27 0 75 80 133 124 89z
m-66 -199 c4 -36 -15 -84 -40 -97 -25 -14 -85 6 -93 30 -9 30 5 51 54 76 57
30 75 28 79 -9z m220 -119 c35 -28 -17 -75 -165 -151 l-53 -26 -20 20 c-12 12
-19 24 -17 28 1 4 8 18 14 32 5 14 17 42 26 62 11 24 25 39 39 42 13 3 32 7
43 9 29 7 118 -4 133 -16z m562 -137 c0 -5 -4 -10 -10 -10 -5 0 -10 5 -10 10
0 6 5 10 10 10 6 0 10 -4 10 -10z m-407 -67 c13 -24 13 -31 -5 -65 -22 -42
-97 -105 -136 -115 -46 -11 -68 49 -36 96 20 28 131 111 150 111 7 0 20 -12
27 -27z m117 -227 c0 -8 -16 -27 -36 -43 -20 -15 -50 -43 -68 -60 -18 -18 -36
-33 -40 -33 -5 0 -24 -13 -43 -30 -38 -34 -80 -42 -67 -12 4 9 8 30 8 45 1 30
54 87 80 87 8 0 43 13 78 30 70 33 88 37 88 16z m-404 -148 c26 -50 9 -55 -19
-7 -15 25 -27 49 -27 54 0 14 31 -18 46 -47z m469 -45 c44 -48 29 -72 -33 -52
-55 17 -67 24 -70 44 -9 42 65 48 103 8z m345 -88 c0 -6 -75 -46 -128 -66 -78
-31 -58 18 23 56 28 13 105 21 105 10z m-217 -164 c3 -11 17 -22 36 -26 28 -6
32 -11 29 -33 -3 -24 -7 -27 -36 -25 -22 1 -39 9 -49 23 -11 15 -23 20 -39 17
-42 -8 -20 39 26 56 25 9 27 8 33 -12z m577 -22 c0 -20 -21 -49 -35 -49 -20 0
-19 19 2 42 18 20 33 24 33 7z m-370 -227 c0 -24 -29 -64 -41 -57 -14 9 -11
38 7 63 17 24 34 21 34 -6z"/>
<path d="M2440 3991 c0 -5 10 -15 23 -24 12 -8 40 -40 62 -70 22 -31 52 -61
66 -66 15 -5 50 -38 78 -73 28 -34 58 -72 68 -83 10 -10 32 -36 48 -56 58 -71
205 -176 280 -199 21 -7 57 -26 78 -41 36 -26 66 -31 52 -9 -3 5 -6 43 -6 85
0 57 4 81 18 102 11 16 27 46 36 68 20 48 84 260 89 295 4 31 22 33 26 3 4
-29 -34 -221 -59 -297 -10 -33 -19 -72 -19 -86 0 -30 24 -95 39 -104 4 -3 18
-32 30 -64 23 -62 57 -100 146 -167 48 -36 51 -37 108 -30 69 7 87 -3 87 -50
0 -22 -10 -43 -30 -66 -17 -19 -38 -50 -46 -69 -23 -52 -46 -221 -45 -333 2
-112 -3 -124 -82 -215 -31 -35 -68 -83 -83 -105 -37 -55 -105 -127 -121 -127
-7 0 -27 -13 -46 -29 -18 -16 -45 -33 -60 -36 -39 -10 -75 -58 -81 -108 -21
-172 -12 -430 18 -498 8 -19 17 -41 20 -49 3 -8 16 -33 29 -55 19 -32 30 -41
57 -43 26 -3 38 2 52 20 9 13 18 30 18 38 0 9 9 34 20 55 12 22 27 63 36 92
11 37 27 62 56 89 l41 37 72 -7 c71 -6 75 -6 142 31 37 20 105 70 149 110 77
69 104 86 104 63 0 -5 -11 -40 -25 -77 -22 -59 -35 -78 -107 -145 -47 -44 -92
-78 -103 -78 -21 0 -56 -21 -87 -52 -10 -10 -27 -18 -38 -18 -24 0 -62 -70
-85 -160 -16 -62 -16 -126 1 -242 6 -41 28 -51 39 -18 8 24 18 25 39 5 23 -23
34 -19 96 35 32 28 75 57 96 66 22 9 46 22 54 29 8 7 27 16 42 21 15 5 59 34
97 64 l71 55 0 1298 0 1297 -780 0 c-446 0 -780 -4 -780 -9z"/>
<path d="M0 2734 l0 -336 28 5 c15 3 47 10 72 17 68 17 159 -4 205 -46 29 -28
108 -84 117 -84 16 0 7 35 -42 148 -60 142 -156 335 -208 418 -57 90 -151 214
-162 214 -6 0 -10 -120 -10 -336z"/>
<path d="M2 2064 l3 -288 29 -7 c66 -18 199 -99 185 -113 -11 -12 -112 -26
-123 -17 -6 4 -30 11 -54 15 l-42 6 0 -830 0 -830 810 0 c446 0 810 2 810 5 0
4 -7 19 -15 35 -8 16 -18 58 -22 92 -3 35 -10 68 -15 75 -6 8 -50 11 -136 10
-132 -1 -167 6 -337 59 -44 14 -93 31 -110 38 -16 7 -44 12 -62 11 -19 -1 -34
4 -37 12 -7 17 -36 16 -60 -2 -11 -8 -29 -15 -40 -15 -28 0 -70 -28 -131 -84
-64 -61 -99 -79 -134 -71 -21 4 -30 2 -34 -9 -9 -22 -23 -20 -118 11 -81 26
-164 82 -146 99 4 4 13 2 19 -4 7 -7 23 -12 38 -12 14 0 34 -7 44 -15 11 -8
35 -15 53 -15 19 0 50 -7 70 -15 20 -8 37 -14 38 -13 1 2 9 17 18 33 18 35
212 236 244 253 50 27 124 15 458 -73 163 -42 188 -47 259 -42 60 4 86 11 109
28 17 12 46 24 65 26 45 5 69 18 115 61 28 27 35 41 30 57 -4 11 -7 43 -7 70
l-1 50 -44 -2 c-24 -1 -48 -6 -53 -11 -12 -12 11 -62 29 -62 7 0 18 -12 24
-27 9 -24 7 -30 -10 -42 -12 -7 -21 -20 -21 -27 0 -18 -10 -17 -36 4 -14 12
-24 36 -28 67 -4 28 -18 71 -32 97 -40 79 -139 346 -131 355 9 8 82 -49 137
-106 68 -71 135 -102 178 -80 15 7 43 18 62 24 24 7 36 17 38 32 5 31 -95 228
-143 284 -22 26 -69 86 -105 134 -135 178 -351 362 -524 444 -141 67 -170 76
-215 63 -20 -6 -52 -14 -72 -17 -47 -7 -63 -26 -54 -65 12 -56 83 -120 134
-120 14 0 23 -9 27 -27 4 -16 10 -32 14 -38 4 -5 10 -47 12 -92 4 -70 10 -93
43 -157 l38 -75 71 -6 c39 -3 103 -7 141 -9 73 -4 105 -12 105 -27 0 -16 -56
-38 -111 -44 -30 -3 -72 -10 -94 -15 -22 -5 -62 -12 -89 -15 -37 -5 -58 -15
-90 -44 -22 -21 -62 -50 -89 -65 -26 -15 -55 -35 -65 -45 -24 -27 -111 -71
-137 -71 -36 0 -127 34 -195 73 -70 40 -138 92 -130 101 8 7 126 -20 188 -43
110 -41 248 14 303 121 58 112 -17 327 -150 431 -52 41 -62 45 -131 51 -101 9
-190 28 -190 41 0 13 65 43 112 51 53 9 62 24 43 70 -9 21 -23 78 -31 127 -20
114 -27 132 -73 187 -21 25 -43 55 -50 67 -15 29 -162 139 -218 165 -23 10
-64 20 -92 23 -28 2 -56 7 -61 10 -7 4 -9 -89 -8 -281z"/>
<path d="M3531 1081 c-14 -25 -14 -44 -1 -36 17 11 31 43 21 50 -6 3 -15 -3
-20 -14z"/>
<path d="M3981 1060 c-7 -14 -22 -33 -32 -43 -21 -19 -22 -32 -23 -235 -1
-115 6 -158 20 -115 3 10 9 25 14 34 5 9 12 38 15 65 4 27 12 54 17 60 5 7 7
67 6 135 -3 112 -4 122 -17 99z"/>
<path d="M3200 760 c0 -5 5 -10 10 -10 6 0 10 5 10 10 0 6 -4 10 -10 10 -5 0
-10 -4 -10 -10z"/>
</g>
</svg>
