<?xml version="1.0" standalone="no"?>
<!DOCTYPE svg PUBLIC "-//W3C//DTD SVG 20010904//EN"
 "http://www.w3.org/TR/2001/REC-SVG-20010904/DTD/svg10.dtd">
<svg version="1.0" xmlns="http://www.w3.org/2000/svg"
 width="639.000000pt" height="639.000000pt" viewBox="0 0 639.000000 639.000000"
 preserveAspectRatio="xMidYMid meet">
<metadata>
Created by potrace 1.14, written by Peter Selinger 2001-2017
</metadata>
<g transform="translate(0.000000,639.000000) scale(0.100000,-0.100000)"
fill="#000000" stroke="none">
<path d="M3158 5988 c-36 -61 -35 -60 -9 -100 17 -26 32 -38 48 -38 13 0 23 4
23 10 0 5 18 15 41 21 31 10 37 15 25 21 -9 5 -16 16 -16 23 0 8 -5 15 -10 15
-6 0 -20 16 -31 35 -24 40 -53 45 -71 13z"/>
<path d="M3125 5820 c3 -5 2 -10 -3 -10 -11 0 -26 -56 -23 -85 1 -11 12 -28
24 -38 l22 -19 -39 6 c-21 3 -48 0 -59 -5 -17 -10 -19 -18 -13 -75 5 -54 4
-64 -9 -64 -8 0 -15 -7 -15 -16 0 -33 -34 -8 -48 36 -8 25 -16 47 -18 48 -1 2
-18 -2 -38 -9 -27 -10 -35 -18 -34 -35 1 -13 12 -27 25 -33 13 -6 23 -16 23
-22 0 -19 -63 2 -84 29 l-20 25 -13 -29 c-6 -16 -12 -24 -13 -18 0 7 -7 15
-16 18 -13 5 -14 1 -10 -22 7 -31 0 -45 -29 -59 -23 -11 -67 -3 -65 12 1 6 -6
12 -16 13 -10 3 -14 0 -10 -7 5 -8 0 -8 -17 -2 -21 8 -28 5 -46 -20 -12 -16
-28 -29 -36 -29 -8 0 -29 -8 -47 -18 -18 -10 -44 -19 -58 -20 -40 -2 -70 -23
-70 -49 0 -16 -6 -23 -20 -23 -11 0 -20 -4 -20 -10 0 -5 -19 -29 -42 -53 -24
-24 -44 -47 -45 -51 -3 -15 -119 -99 -163 -118 -25 -11 -76 -29 -114 -39 -90
-23 -118 -44 -131 -100 -7 -28 -17 -45 -28 -47 -9 -2 -30 -17 -46 -33 -24 -23
-36 -28 -56 -23 -15 4 -25 2 -25 -5 0 -6 -17 -19 -38 -30 -21 -11 -44 -31 -52
-45 -7 -14 -17 -26 -22 -26 -4 0 -8 -6 -8 -14 0 -11 18 -13 90 -10 50 2 90 0
90 -5 0 -8 -90 -51 -108 -51 -12 0 -74 -31 -70 -35 3 -3 71 7 144 19 20 4 23
-1 49 -69 5 -11 7 -30 6 -41 -2 -20 2 -22 38 -20 23 1 41 0 41 -3 -1 -15 -19
-30 -68 -54 -42 -21 -68 -27 -118 -27 l-65 0 -63 -63 c-85 -87 -154 -119 -261
-125 -118 -6 -176 16 -322 124 -21 15 -29 15 -111 -6 -105 -25 -172 -61 -237
-127 -94 -93 -155 -214 -199 -396 -29 -117 -50 -268 -43 -300 5 -19 0 -52 -18
-133 -4 -16 11 -37 59 -86 223 -228 295 -348 344 -582 l17 -81 84 -27 84 -27
60 31 c136 68 407 109 548 82 141 -27 391 -177 456 -274 26 -38 33 -79 8 -46
-8 10 -16 22 -17 27 -2 4 -16 10 -33 12 -16 3 -43 10 -60 15 -16 5 -36 7 -43
4 -17 -5 -102 20 -102 31 0 5 -25 7 -55 5 -47 -3 -55 0 -55 15 0 19 -15 23
-25 7 -4 -7 -19 -4 -41 10 -20 11 -42 20 -50 20 -13 0 -12 -5 3 -32 10 -18 21
-34 25 -36 15 -7 -6 -33 -57 -68 -30 -20 -56 -43 -60 -52 -5 -13 -3 -13 12 -1
10 8 22 17 28 22 5 4 21 17 35 28 14 12 38 28 53 36 25 12 31 13 45 0 10 -8
25 -17 36 -21 16 -6 16 -3 -4 31 -19 32 -19 35 -4 21 11 -9 31 -20 47 -23 15
-4 30 -11 33 -16 3 -5 21 -16 40 -24 35 -14 41 -28 25 -54 -7 -11 -3 -21 12
-36 12 -12 37 -38 55 -58 18 -20 36 -37 40 -37 5 0 19 -10 31 -22 13 -11 36
-22 51 -23 35 -3 80 -33 80 -54 0 -22 -35 -51 -63 -52 -12 0 -31 -4 -41 -8
-18 -7 -17 -10 13 -36 17 -16 44 -50 57 -76 14 -26 37 -52 50 -58 13 -6 24
-15 24 -20 0 -6 14 -14 32 -19 23 -6 46 -26 80 -71 41 -54 47 -65 36 -79 -11
-13 -11 -14 1 -7 10 5 12 4 7 -3 -4 -7 3 -16 18 -21 13 -6 27 -20 31 -33 4
-13 17 -36 30 -53 12 -16 36 -74 54 -127 18 -54 36 -100 39 -102 11 -7 62 5
62 15 0 4 -12 7 -27 6 -24 -2 -28 2 -34 36 -3 21 -2 40 3 43 15 10 8 42 -15
71 -13 15 -27 39 -30 53 -5 21 -2 25 18 26 14 1 23 -2 20 -7 -7 -10 47 -39 75
-39 11 0 32 -7 45 -16 14 -9 32 -14 40 -10 9 3 23 2 33 -3 9 -5 25 -12 36 -15
11 -4 16 -12 12 -21 -3 -8 -1 -15 3 -15 5 0 28 -18 51 -39 33 -30 40 -44 35
-60 -4 -12 -2 -21 4 -21 20 0 26 -5 43 -40 18 -35 24 -54 10 -35 -14 20 -70
55 -89 55 -12 0 -8 -5 13 -16 49 -24 222 -195 235 -231 6 -20 18 -33 28 -33 9
0 26 -7 37 -15 27 -20 44 -18 44 5 0 11 -4 20 -10 20 -5 0 -10 7 -10 15 0 9
-12 18 -30 22 -35 7 -39 18 -8 26 15 4 19 10 12 19 -18 23 -17 85 0 91 11 5
14 14 10 37 -5 23 -3 30 10 30 17 0 48 -54 65 -115 12 -44 27 -72 35 -64 6 6
-12 87 -24 110 -5 9 -9 42 -9 73 0 43 4 56 16 56 29 0 6 25 -32 34 l-38 9 23
17 c19 14 21 20 11 38 -9 16 -21 22 -46 22 -37 0 -54 14 -29 24 13 5 14 9 5
20 -9 11 -8 15 6 21 17 6 16 8 -4 25 -13 10 -23 22 -23 27 0 5 -13 8 -30 5
-25 -4 -30 -1 -30 17 0 11 -4 21 -9 21 -5 0 -8 36 -7 81 1 44 -1 82 -6 85 -13
8 4 34 23 34 10 0 19 4 19 9 0 5 -8 7 -17 5 -27 -6 -42 8 -45 43 -1 18 -4 30
-7 28 -7 -7 -31 16 -26 25 3 4 -1 23 -9 41 -13 30 -12 35 3 49 26 22 34 50 15
50 -9 0 -14 6 -11 13 2 6 9 11 15 10 5 -1 13 4 16 13 3 8 2 12 -4 9 -6 -3 -10
-2 -10 4 0 5 6 12 13 14 10 4 10 6 0 6 -7 1 -13 6 -13 11 0 6 -11 23 -24 37
-14 15 -23 30 -20 34 2 4 -1 11 -6 14 -7 5 -5 11 6 20 16 11 16 14 -4 47 -12
20 -22 42 -22 51 0 8 -7 18 -16 21 -24 9 -34 7 -34 -7 0 -7 -9 -23 -21 -36
l-21 -22 -14 28 c-8 15 -22 33 -31 40 -10 8 -13 20 -9 37 7 29 24 32 64 12 15
-7 44 -16 65 -20 39 -7 155 -80 164 -103 3 -7 9 -13 15 -13 15 0 123 -76 154
-109 32 -34 39 -36 57 -20 9 9 4 20 -24 49 -20 20 -42 51 -50 68 -7 17 -24 33
-36 37 -14 3 -23 13 -23 24 0 10 -7 24 -15 31 -13 10 -13 15 -3 21 19 12 10
17 -118 60 -124 41 -176 55 -364 95 -129 27 -144 28 -135 14 3 -6 -3 -10 -14
-10 -14 0 -21 -6 -21 -20 0 -20 -29 -29 -31 -10 -1 6 -3 15 -4 20 -1 6 -3 14
-4 20 0 5 -9 14 -20 19 -27 15 -232 49 -341 57 -52 3 -102 11 -110 16 -9 5 11
7 55 3 194 -15 306 -28 369 -41 38 -8 88 -14 112 -14 23 0 46 -5 49 -10 4 -6
28 -8 59 -4 35 4 56 3 60 -5 9 -14 36 -15 36 -1 0 6 -9 10 -20 10 -11 0 -20 5
-20 11 0 13 17 11 150 -20 140 -32 279 -80 387 -133 l101 -51 49 28 c95 54
211 96 371 136 90 22 166 38 169 35 6 -6 -6 -11 -49 -20 -32 -7 -38 -36 -9
-36 11 0 22 4 25 8 5 8 34 14 216 43 36 6 97 17 135 25 39 8 133 20 210 26 77
6 142 15 145 20 3 4 84 10 180 14 96 3 199 10 229 15 124 21 416 -28 538 -89
l60 -31 74 23 74 22 13 60 c56 254 123 364 371 613 l73 74 -6 81 c-18 223 -70
446 -136 581 -87 177 -201 267 -393 311 l-77 18 -28 -26 c-44 -41 -122 -85
-186 -103 -72 -21 -157 -16 -237 14 -59 22 -148 90 -164 124 -15 34 -24 37
-121 37 -103 0 -108 3 -118 68 -9 60 1 94 27 90 12 -2 31 7 44 20 35 35 48 28
64 -35 l14 -58 3 48 c3 39 6 48 20 45 10 -2 18 -14 20 -30 2 -17 11 -30 23
-33 11 -4 18 -13 15 -20 -3 -10 6 -12 34 -11 22 1 42 5 46 8 8 8 54 -12 54
-23 0 -5 36 -8 80 -6 44 1 80 5 80 9 0 4 12 14 28 22 20 11 23 16 12 19 -63
21 -247 77 -254 77 -22 0 -106 44 -106 56 0 8 -6 14 -13 14 -25 0 -113 69
-157 123 -57 70 -94 92 -146 84 -21 -3 -47 -8 -56 -12 -10 -4 -24 1 -38 15
-13 13 -36 23 -54 24 -17 0 -34 5 -38 11 -4 5 -10 2 -14 -8 -8 -22 -15 -22
-80 9 -62 29 -78 26 -46 -9 24 -25 30 -71 10 -65 -7 3 -29 36 -50 74 -37 69
-49 112 -26 98 7 -4 8 -3 4 4 -4 7 -3 20 3 29 7 13 3 26 -19 53 -56 72 -77
144 -23 79 26 -31 53 -39 49 -14 -1 8 -5 18 -9 21 -12 12 -8 64 6 64 7 0 5 5
-5 11 -11 6 -15 16 -11 26 5 11 3 14 -6 8 -10 -5 -11 -2 -6 14 3 11 3 21 -2
21 -15 0 -55 69 -49 85 4 11 -3 19 -20 25 -32 13 -37 12 -29 0 3 -5 -1 -10 -9
-10 -9 0 -16 -5 -16 -11 0 -5 -5 -7 -10 -4 -6 4 -7 11 -4 17 4 5 1 21 -7 34
-9 17 -18 22 -31 18 -11 -3 -26 0 -34 7 -12 9 -12 15 -2 27 11 13 11 14 -1 7
-9 -5 -19 -2 -28 10 -7 11 -13 15 -13 11 0 -5 -8 1 -17 12 -10 12 -47 33 -82
47 -61 25 -140 85 -113 85 7 0 11 4 7 10 -3 5 -12 7 -20 4 -8 -4 -12 -11 -8
-17 3 -6 1 -7 -5 -3 -6 4 -9 13 -5 21 7 20 -21 19 -41 -1 -16 -15 -20 -32 -17
-66 1 -10 -4 -18 -13 -18 -9 0 -15 5 -13 12 1 6 -6 14 -15 16 -11 2 -18 -2
-18 -12 0 -25 -56 -21 -63 4 -3 11 -1 18 3 15 5 -3 3 8 -3 25 -6 16 -20 30
-31 32 -12 2 -20 12 -23 28 -6 42 -11 48 -52 70 -29 14 -59 20 -111 20 -45 0
-69 -4 -65 -10z m672 -287 c-3 -10 -5 -4 -5 12 0 17 2 24 5 18 2 -7 2 -21 0
-30z m53 -39 c0 -8 -4 -12 -10 -9 -5 3 -10 13 -10 21 0 8 5 12 10 9 6 -3 10
-13 10 -21z m-381 -72 c18 -18 39 -31 45 -30 28 6 86 -54 86 -88 0 -7 -34 -1
-60 10 -12 5 -15 -4 -17 -44 -1 -28 -9 -65 -17 -83 -24 -54 -27 -69 -17 -81
15 -18 23 -74 11 -81 -5 -3 -6 -13 -3 -21 4 -12 14 -14 39 -10 18 4 35 2 39
-4 3 -6 21 -16 39 -24 23 -10 39 -27 54 -59 12 -25 30 -51 40 -59 11 -7 27
-28 36 -46 12 -23 22 -31 34 -28 11 4 32 -10 61 -39 25 -25 40 -45 33 -45 -6
0 -28 16 -48 35 -20 19 -39 33 -44 30 -11 -7 16 -121 40 -168 37 -70 28 -73
-66 -23 -67 37 -83 42 -74 27 6 -12 42 -38 80 -59 39 -21 67 -41 64 -45 -7 -6
-51 11 -74 29 -8 6 -28 15 -45 18 -16 4 -38 15 -47 23 -27 24 -95 29 -119 7
-10 -9 -19 -23 -19 -30 0 -17 70 -74 92 -74 19 0 33 -16 20 -24 -18 -11 -165
22 -175 39 -7 12 -17 15 -41 11 -41 -8 -92 7 -89 25 2 11 -15 14 -85 14 -48 0
-90 4 -93 8 -4 5 -15 4 -25 -3 -13 -8 -30 -9 -54 -3 -27 7 -37 6 -52 -9 -12
-12 -34 -18 -65 -19 -58 -1 -107 -17 -55 -18 21 -1 32 -6 32 -15 0 -8 5 -16
10 -18 6 -2 1 -9 -10 -16 -17 -10 -20 -10 -21 5 -1 10 -1 22 0 26 1 4 -22 5
-51 3 -29 -3 -45 -3 -35 0 37 12 16 25 -28 18 -47 -7 -56 3 -30 32 15 16 116
44 159 44 20 0 36 5 36 10 0 6 7 10 15 10 8 0 15 4 15 9 0 5 9 11 20 13 12 2
21 8 22 13 2 14 44 45 61 45 20 0 27 22 20 64 -5 34 -7 35 -26 21 -12 -8 -34
-15 -49 -15 -15 0 -31 -6 -35 -12 -4 -7 -33 -26 -63 -41 -67 -34 -88 -47 -114
-69 -11 -10 -28 -21 -39 -24 -10 -3 -35 -17 -54 -30 -20 -13 -43 -24 -51 -24
-9 0 -23 -6 -31 -14 -9 -7 -29 -16 -46 -20 -27 -6 -25 -3 20 29 28 21 60 42
73 48 12 5 22 16 22 24 0 10 -9 9 -40 -7 -21 -11 -46 -20 -55 -20 -9 0 -25 -9
-37 -20 -29 -26 -40 -25 -29 3 29 71 62 137 70 137 5 0 12 13 16 29 3 16 13
32 22 35 9 4 13 9 9 13 -3 3 2 15 11 25 16 18 16 19 -4 24 -18 5 -19 10 -13
40 9 40 47 84 74 84 13 0 16 -4 11 -17 -4 -10 -10 -31 -12 -48 -2 -16 -9 -40
-15 -52 -8 -16 -8 -26 0 -36 7 -8 9 -16 6 -20 -9 -9 6 -48 17 -42 8 6 13 -8
10 -28 -3 -17 31 -18 55 -2 19 12 25 23 21 41 -2 13 -1 21 3 19 4 -2 16 2 26
10 10 8 28 15 39 15 11 0 27 9 35 20 8 11 21 20 30 20 12 1 11 4 -4 15 -11 8
-15 15 -9 15 14 0 58 42 67 65 9 24 -3 127 -15 120 -4 -3 -19 5 -31 17 -20 20
-23 21 -26 5 -4 -21 -21 -22 -29 -2 -3 9 2 24 12 35 21 23 16 56 -8 52 -11 -2
-15 2 -11 11 7 18 -21 26 -74 21 -34 -3 -42 0 -56 22 l-17 25 153 -2 c158 -3
178 -1 190 16 5 6 8 3 8 -6 0 -16 -64 -49 -95 -49 -20 0 -19 -26 1 -34 9 -3
13 -13 10 -23 -3 -10 8 -43 24 -73 28 -53 29 -54 30 -23 0 33 17 54 29 35 8
-13 131 6 152 24 13 12 18 11 36 -1 21 -15 21 -14 13 17 -6 17 -14 36 -20 42
-5 5 -10 14 -10 18 0 14 27 9 40 -7 34 -42 80 9 63 70 -11 40 -35 38 -45 -2
-5 -18 -13 -33 -20 -33 -7 0 -6 5 2 15 7 8 10 21 7 29 -3 7 -1 18 5 24 6 6 6
12 -1 17 -7 4 -10 1 -9 -7 2 -7 -3 -12 -9 -10 -7 1 -12 -1 -12 -5 1 -5 1 -15
0 -23 -1 -13 -2 -13 -11 0 -5 8 -10 11 -10 6 0 -6 -16 7 -35 28 -38 42 -40 48
-25 77 9 15 15 17 30 9 24 -13 30 -13 30 2 0 6 -3 9 -6 5 -7 -7 -34 17 -34 30
0 4 13 22 28 38 26 27 34 30 93 29 58 0 67 -3 98 -32z m-351 -21 c27 -26 40
-46 36 -55 -8 -20 -44 -3 -44 19 0 9 -15 29 -32 45 -23 20 -28 30 -17 30 9 0
34 -18 57 -39z m804 -127 c54 -46 49 -73 -12 -74 -19 0 -30 9 -44 35 -10 19
-23 32 -27 29 -5 -3 -9 2 -9 10 0 14 25 35 42 36 3 0 26 -16 50 -36z m-1172
-74 c0 -16 -87 -16 -104 1 -6 5 12 9 47 9 31 0 57 -4 57 -10z m-236 -189 c3
-5 -9 -11 -27 -14 -17 -3 -55 -12 -84 -20 -44 -13 -54 -13 -64 -1 -9 11 -6 15
12 22 13 5 31 12 39 15 25 9 118 8 124 -2z m-229 -40 c-21 -20 -129 -42 -110
-22 13 13 84 39 110 40 19 1 19 1 0 -18z m338 -72 c-7 -25 -53 -55 -100 -64
-39 -7 -76 -56 -70 -92 2 -13 0 -23 -4 -23 -5 0 -9 8 -9 19 0 34 -26 46 -70
31 -51 -17 -63 -6 -21 17 70 39 71 44 7 37 -43 -5 -57 -4 -52 5 4 6 15 11 25
11 22 0 90 27 110 44 11 9 85 23 178 35 7 0 9 -7 6 -20z m1612 -67 c-6 -7 -35
18 -35 31 0 5 9 2 20 -8 11 -10 18 -20 15 -23z m-130 -2 c3 -5 12 -7 20 -4 7
3 18 -4 25 -15 9 -17 7 -25 -9 -42 -11 -12 -24 -18 -30 -14 -6 3 -11 1 -11 -4
0 -6 -4 -11 -10 -11 -5 0 -10 6 -10 14 0 8 -13 24 -30 37 -34 27 -38 39 -11
32 10 -3 22 0 25 6 9 14 33 14 41 1z m-1513 -83 c-11 -12 -36 -30 -54 -40 -28
-15 -25 -11 17 27 50 45 76 55 37 13z m2000 -9 c-14 -14 -52 4 -52 24 0 19 1
19 30 1 16 -9 26 -21 22 -25z m91 -43 c20 -14 37 -28 37 -31 0 -12 -56 8 -72
26 -36 38 -18 40 35 5z m-2183 -13 c0 -10 -71 -58 -100 -67 -11 -3 -20 -10
-20 -15 0 -11 -91 -61 -103 -57 -5 1 26 24 69 49 44 26 95 58 114 72 40 29 40
29 40 18z m1510 -67 c36 -23 81 -52 100 -63 19 -12 28 -22 20 -22 -25 0 -240
136 -240 152 0 6 12 2 28 -8 15 -9 56 -36 92 -59z m79 35 c14 -1 14 -2 -1 -11
-23 -13 -69 8 -47 22 8 5 10 9 6 9 -5 0 -5 5 -1 12 5 8 11 5 17 -10 6 -12 17
-22 26 -22z m-2019 15 c-1 -17 -24 -42 -60 -64 -19 -11 -30 -21 -25 -21 6 0
12 -12 13 -27 1 -15 9 -37 18 -51 9 -13 14 -25 12 -26 -2 -1 -27 -13 -56 -25
-52 -21 -54 -22 -68 -4 -26 35 -4 117 26 98 9 -5 10 -1 6 13 -8 23 31 94 60
110 21 12 74 10 74 -3z m200 -34 c0 -6 -5 -13 -10 -16 -6 -4 -7 -12 -3 -18 4
-7 0 -6 -10 2 -23 18 -21 41 3 41 11 0 20 -4 20 -9z m-44 -31 c5 1 10 -3 12
-9 3 -8 -165 -101 -183 -101 -11 0 -4 30 8 31 6 0 3 4 -8 8 -15 6 -11 9 23 14
23 4 42 12 42 17 0 6 10 10 23 10 25 1 71 30 46 30 -12 0 -12 2 1 10 9 6 17 5
21 -1 3 -6 10 -10 15 -9z m24 -75 c0 -5 -68 -35 -79 -35 -8 1 61 39 72 40 4 0
7 -2 7 -5z m2020 -60 c0 -3 -25 6 -56 20 -31 14 -58 25 -60 25 -2 0 -4 5 -4
10 0 6 27 -3 60 -20 33 -17 60 -32 60 -35z m-1530 38 c-1 -18 -18 -35 -24 -24
-4 6 -4 16 -1 21 7 12 25 13 25 3z m-195 -13 c3 -5 1 -10 -4 -10 -6 0 -11 5
-11 10 0 6 2 10 4 10 3 0 8 -4 11 -10z m1952 -106 c240 -5 281 -8 276 -21 -4
-10 -9 -11 -16 -4 -17 17 -57 13 -57 -4 0 -13 -59 -15 -477 -14 -305 0 -470 4
-455 10 27 10 20 29 -11 29 -12 0 -27 4 -34 8 -12 8 327 6 774 -4z m-1907 -4
c0 -5 -16 -10 -36 -10 -28 0 -35 -3 -30 -15 5 -13 -42 -15 -387 -14 -408 1
-498 6 -504 26 -5 14 85 17 615 21 223 1 342 -1 342 -8z m-1830 -115 c0 -8 -9
-15 -20 -15 -20 0 -26 11 -13 23 12 13 33 7 33 -8z m-147 -102 c-10 -20 -10
-30 2 -56 4 -10 5 -42 1 -72 -3 -31 -2 -56 4 -60 5 -3 12 16 16 45 8 62 24 66
24 6 0 -53 -8 -76 -25 -76 -7 0 -15 -18 -19 -40 -3 -22 -11 -40 -16 -40 -13 0
-13 13 1 27 21 21 0 34 -26 17 -13 -9 -29 -13 -35 -9 -5 3 -24 -1 -42 -9 -38
-20 -38 -20 -38 -1 0 8 4 15 9 15 14 0 85 60 98 83 7 12 12 33 12 47 l1 25
-15 -25 c-8 -14 -17 -32 -20 -40 -9 -22 -69 -62 -74 -49 -5 16 66 147 107 197
35 42 52 50 35 15z m111 -37 c-3 -9 -10 -16 -15 -16 -6 0 -5 9 1 21 13 24 24
20 14 -5z m5161 -72 c19 -35 38 -76 41 -90 6 -24 5 -25 -15 -15 -11 7 -21 19
-21 27 0 9 -11 29 -25 46 -14 16 -25 38 -25 48 0 9 -7 23 -15 30 -8 7 -15 22
-15 33 0 19 1 19 20 2 11 -10 35 -46 55 -81z m-73 21 c3 -70 3 -75 -7 -75 -13
-1 -25 58 -18 88 8 34 23 26 25 -13z m-27 -115 c3 -5 1 -10 -4 -10 -6 0 -11 5
-11 10 0 6 2 10 4 10 3 0 8 -4 11 -10z m101 -21 c3 -6 22 -17 40 -25 19 -8 34
-21 34 -29 0 -19 -15 -19 -45 1 -14 9 -25 13 -25 10 0 -4 -18 3 -40 14 -22 11
-40 25 -40 30 0 14 67 13 76 -1z m-3291 -129 c3 -5 -3 -10 -14 -10 -12 0 -21
5 -21 10 0 6 6 10 14 10 8 0 18 -4 21 -10z m1210 0 c14 -6 -4 -9 -56 -9 -42
-1 -96 -8 -119 -16 -24 -8 -45 -13 -47 -11 -4 4 68 32 102 39 34 8 99 6 120
-3z m-2480 -10 c-3 -6 -48 -10 -101 -10 -56 0 -94 4 -94 10 0 6 40 10 101 10
64 0 98 -4 94 -10z m495 0 c-20 -13 -187 -13 -195 0 -4 6 32 10 102 10 73 0
103 -3 93 -10z m2585 0 c4 -6 -43 -10 -134 -10 -87 0 -141 4 -141 10 0 6 51
10 134 10 79 0 137 -4 141 -10z m480 0 c-4 -6 -55 -10 -120 -10 -65 0 -116 4
-120 10 -4 6 38 10 120 10 82 0 124 -4 120 -10z m430 0 c-8 -13 -175 -13 -195
0 -10 7 20 10 93 10 70 0 106 -4 102 -10z m-2615 -16 c0 -2 -7 -4 -15 -4 -8 0
-15 4 -15 10 0 5 7 7 15 4 8 -4 15 -8 15 -10z m1150 6 c0 -5 -2 -10 -4 -10 -3
0 -8 5 -11 10 -3 6 -1 10 4 10 6 0 11 -4 11 -10z m630 -10 c8 -5 12 -11 9 -14
-3 -3 -14 1 -25 9 -21 16 -8 20 16 5z m-558 -31 l33 -31 -40 28 c-22 16 -42
29 -44 31 -2 2 1 3 7 3 7 0 26 -14 44 -31z m401 -246 c-7 -2 -19 -2 -25 0 -7
3 -2 5 12 5 14 0 19 -2 13 -5z m1644 -48 c3 -9 3 -19 -1 -22 -7 -7 -36 16 -36
28 0 15 30 10 37 -6z m71 -28 c3 -35 2 -37 -27 -37 -34 0 -39 11 -16 34 8 8
15 22 15 31 0 33 25 8 28 -28z m-5650 -9 c18 -18 15 -28 -8 -28 -13 0 -20 7
-20 20 0 23 10 26 28 8z m1375 -745 c-7 -2 -19 -2 -25 0 -7 3 -2 5 12 5 14 0
19 -2 13 -5z m724 -39 c-3 -3 -12 -4 -19 -1 -8 3 -5 6 6 6 11 1 17 -2 13 -5z
m57 -205 c46 -51 55 -69 36 -69 -5 0 -10 8 -10 17 0 9 -3 13 -7 10 -3 -4 -11
-3 -17 2 -8 6 -12 -3 -13 -30 -2 -33 0 -39 17 -39 13 0 20 -7 20 -18 0 -10 7
-27 15 -38 8 -10 15 -25 15 -31 0 -24 -18 -13 -41 24 -13 21 -31 45 -41 55
-10 10 -18 24 -18 31 0 6 -12 23 -25 36 -25 23 -34 61 -15 61 6 0 22 -7 35
-16 22 -14 25 -14 25 -1 0 8 -9 17 -20 20 -20 5 -29 37 -11 37 5 0 30 -23 55
-51z m-174 -85 c0 -8 -6 -11 -15 -8 -8 4 -15 15 -15 26 0 17 3 18 15 8 8 -7
15 -19 15 -26z m10 -55 c9 -16 7 -19 -10 -19 -15 0 -20 7 -20 26 0 27 14 25
30 -7z m358 -37 c2 -12 9 -22 16 -22 6 0 13 -11 14 -26 1 -14 -2 -23 -7 -20
-13 8 -22 -22 -15 -49 3 -14 -4 -43 -19 -75 l-25 -53 23 -21 c12 -11 34 -38
48 -59 l26 -38 -22 -37 c-11 -20 -26 -40 -32 -44 -6 -5 -5 -8 3 -8 10 0 10 -3
-2 -15 -8 -8 -22 -15 -30 -15 -9 0 -16 -7 -16 -15 0 -10 -10 -15 -29 -15 -16
0 -36 -3 -45 -6 -10 -4 -17 2 -22 20 -3 14 -21 39 -40 56 -19 16 -37 43 -40
59 -5 21 -15 33 -36 40 -19 7 -27 15 -22 22 5 9 0 10 -19 5 -22 -5 -33 1 -65
34 -31 33 -46 41 -80 43 -23 1 -44 7 -46 13 -3 7 20 10 67 10 47 -1 72 -5 75
-13 2 -7 10 -13 17 -13 27 0 71 -34 98 -76 16 -24 33 -42 38 -38 5 3 7 10 4
15 -4 5 -1 9 4 9 6 0 11 5 11 11 0 6 -7 9 -15 6 -8 -4 -17 -2 -20 3 -3 5 4 11
15 15 11 4 18 10 15 15 -3 5 3 13 13 19 11 6 19 23 20 44 3 39 11 36 -133 61
-49 9 -124 22 -165 30 l-75 14 107 -5 c94 -5 108 -3 114 11 3 9 1 22 -5 30
-12 15 -5 46 11 46 6 0 8 -7 5 -14 -4 -10 -1 -13 9 -9 8 3 21 0 29 -7 11 -9
19 -10 28 -1 10 8 17 7 25 -1 7 -7 12 -8 12 -3 0 4 9 0 20 -10 19 -18 20 -17
20 3 0 19 6 22 38 22 20 0 32 -4 27 -8 -6 -4 -10 -14 -10 -22 1 -8 -3 -28 -8
-43 -12 -36 9 -93 29 -77 26 23 44 168 24 200 -6 9 -5 17 3 22 18 12 32 4 35
-20z m-342 -27 c4 -14 4 -29 0 -32 -9 -10 -36 18 -36 38 0 28 29 23 36 -6z
m30 -452 c-6 -6 -36 9 -36 18 0 5 9 4 20 -3 10 -7 18 -14 16 -15z m144 -135
c0 -10 -4 -18 -8 -18 -5 0 -9 14 -9 30 0 20 3 26 9 18 4 -7 8 -21 8 -30z
m-242 -53 c-3 -3 -9 2 -12 12 -6 14 -5 15 5 6 7 -7 10 -15 7 -18z m538 -45
c-31 -48 -32 -50 -6 -50 11 0 20 -4 20 -10 0 -15 -29 -12 -46 4 -22 22 -17 45
18 76 42 38 48 30 14 -20z"/>
<path d="M3174 4944 c-18 -15 -18 -15 2 -9 14 3 35 -5 63 -26 52 -37 46 -23
-8 20 -35 28 -40 29 -57 15z"/>
<path d="M2960 4775 c-8 -9 -8 -15 -2 -15 12 0 26 19 19 26 -2 2 -10 -2 -17
-11z"/>
<path d="M3580 4645 c40 -30 79 -35 40 -6 -13 11 -28 17 -32 15 -4 -3 -8 0 -8
5 0 6 -8 11 -17 11 -11 0 -6 -8 17 -25z"/>
<path d="M3500 4598 l-25 -11 24 -5 c13 -2 31 3 39 12 14 13 14 16 2 15 -8 0
-26 -5 -40 -11z"/>
<path d="M578 4100 c-7 -24 -3 -38 8 -28 3 4 4 17 2 30 l-3 23 -7 -25z"/>
<path d="M2620 2065 c0 -8 5 -15 10 -15 6 0 10 7 10 15 0 8 -4 15 -10 15 -5 0
-10 -7 -10 -15z"/>
<path d="M3460 5676 c0 -2 7 -7 16 -10 8 -3 12 -2 9 4 -6 10 -25 14 -25 6z"/>
<path d="M2744 5481 c0 -11 4 -17 8 -15 4 3 8 12 8 20 0 8 -4 14 -8 14 -4 0
-8 -9 -8 -19z"/>
<path d="M4687 5110 c-3 -11 -1 -20 4 -20 5 0 9 2 9 4 0 2 3 11 6 20 3 9 2 16
-4 16 -5 0 -12 -9 -15 -20z"/>
<path d="M4450 5111 c0 -6 5 -13 10 -16 6 -3 10 1 10 9 0 9 -4 16 -10 16 -5 0
-10 -4 -10 -9z"/>
<path d="M4557 5054 c-8 -8 1 -24 14 -24 5 0 9 7 9 15 0 15 -12 20 -23 9z"/>
<path d="M4135 4989 c-10 -15 3 -25 16 -12 7 7 7 13 1 17 -6 3 -14 1 -17 -5z"/>
<path d="M1800 4960 c0 -5 5 -10 10 -10 6 0 10 5 10 10 0 6 -4 10 -10 10 -5 0
-10 -4 -10 -10z"/>
<path d="M1490 4590 c0 -5 9 -10 20 -10 11 0 20 5 20 10 0 6 -9 10 -20 10 -11
0 -20 -4 -20 -10z"/>
<path d="M1310 4550 c-13 -8 -12 -10 3 -10 9 0 17 5 17 10 0 12 -1 12 -20 0z"/>
<path d="M1260 4530 c0 -5 5 -10 10 -10 6 0 10 5 10 10 0 6 -4 10 -10 10 -5 0
-10 -4 -10 -10z"/>
<path d="M4570 2660 c-347 -36 -509 -63 -518 -88 -2 -7 1 -12 8 -12 6 0 8 6 4
13 -4 6 1 4 11 -5 18 -17 18 -18 -8 -44 l-27 -27 0 47 c0 25 -4 46 -10 46 -16
0 -292 -59 -375 -80 -111 -28 -145 -42 -145 -57 0 -8 -12 -25 -26 -40 -14 -14
-23 -31 -20 -39 6 -15 46 -20 46 -6 0 9 55 35 99 48 19 5 23 3 18 -10 -6 -15
43 -146 63 -171 5 -7 7 -15 3 -18 -3 -4 0 -7 7 -7 7 0 10 -3 7 -7 -4 -3 0 -18
9 -32 9 -14 13 -23 9 -19 -13 13 -35 -29 -37 -69 -1 -27 -8 -43 -25 -57 -14
-10 -29 -29 -33 -42 -7 -18 -17 -24 -40 -24 -16 0 -30 -5 -30 -10 0 -6 -8 -10
-17 -8 -13 2 -19 -5 -21 -24 -3 -23 0 -27 14 -21 10 4 15 2 11 -3 -14 -23 8
-32 41 -18 27 11 31 17 24 30 -14 25 70 67 116 59 26 -5 37 -2 48 12 14 17 14
17 5 -3 -12 -24 -1 -37 62 -68 26 -14 37 -26 37 -42 0 -20 4 -22 33 -19 90 11
137 13 141 6 6 -10 -51 -27 -119 -36 -76 -10 -111 -25 -129 -57 -10 -15 -20
-29 -24 -29 -39 -7 -66 -11 -121 -14 -90 -5 -110 -12 -152 -50 -20 -18 -52
-36 -70 -40 -46 -10 -58 -21 -57 -56 1 -32 24 -48 78 -54 51 -6 90 -18 90 -27
0 -5 -12 -25 -26 -44 l-27 -35 21 -22 c11 -12 22 -31 24 -42 5 -28 61 -38 82
-14 9 11 26 19 38 19 22 1 22 1 4 15 -17 13 -17 15 -3 21 21 8 22 28 2 44 -11
9 -12 16 -4 26 6 7 14 13 17 13 20 -3 51 15 60 34 6 13 11 16 11 8 1 -12 3
-12 14 2 6 9 24 18 39 20 15 1 30 6 34 9 3 4 13 0 22 -8 11 -11 17 -12 22 -4
6 9 9 9 15 0 5 -8 11 -8 23 3 10 8 24 17 32 21 8 4 6 0 -4 -8 -11 -9 -15 -16
-8 -16 6 0 17 9 25 21 14 20 16 20 26 2 10 -17 10 -17 11 0 0 9 5 17 10 17 16
0 12 -15 -23 -88 -31 -63 -32 -70 -20 -100 7 -18 11 -37 8 -43 -4 -5 -4 -9 0
-9 8 0 51 99 69 161 9 31 26 65 36 74 11 10 20 24 20 32 0 7 4 13 10 13 5 0
20 21 32 47 13 26 29 49 36 51 19 6 14 -17 -13 -52 -48 -63 -28 -62 89 4 49
28 94 50 99 50 5 0 15 6 21 13 6 7 31 22 56 33 25 10 51 24 57 30 14 14 56 7
47 -7 -13 -22 34 -6 64 22 38 36 52 34 22 -4 -11 -14 -20 -28 -20 -32 0 -20
98 39 99 60 1 17 109 95 119 86 5 -5 67 12 79 21 7 5 36 13 65 18 47 8 167 40
208 56 19 7 -67 41 -113 45 -18 2 -40 10 -50 18 -23 19 -107 32 -100 15 2 -7
-11 -17 -34 -24 -49 -16 -113 -48 -131 -66 -7 -8 -20 -14 -28 -14 -8 0 -23 -9
-34 -20 -11 -11 -26 -20 -34 -20 -8 0 -17 -8 -20 -18 -6 -17 -16 -18 -83 -16
-47 2 -79 8 -84 16 -6 9 -12 9 -26 -3 -30 -26 -78 -46 -96 -40 -15 6 -14 12
13 54 34 54 37 69 15 87 -12 10 -15 10 -15 -4 0 -9 -3 -16 -7 -16 -18 0 -79
26 -86 37 -4 7 -17 13 -27 13 -27 0 -26 5 16 55 22 27 41 42 50 38 10 -3 14 2
14 20 0 29 67 81 93 71 10 -3 28 6 49 28 60 60 62 61 110 46 24 -7 48 -17 55
-23 7 -5 19 -16 28 -23 24 -20 52 -5 74 41 11 23 38 61 58 85 l38 42 45 -34
c47 -36 100 -87 100 -96 0 -3 -14 -11 -31 -19 -29 -13 -29 -14 -11 -27 22 -15
88 -7 224 29 145 38 131 42 -74 22 -32 -3 -41 1 -64 28 -14 18 -24 24 -20 15
8 -25 -1 -22 -43 12 -20 17 -51 43 -70 58 -30 25 -32 31 -22 50 15 29 5 45
-22 36 -19 -6 -20 -5 -10 8 14 17 8 29 -12 22 -7 -3 -28 4 -46 15 -46 28 -52
26 -34 -9 8 -16 15 -38 15 -48 0 -12 9 -22 22 -25 l22 -6 -20 -23 c-12 -13
-38 -51 -59 -85 -21 -35 -43 -63 -49 -63 -16 1 -37 20 -71 65 -48 65 -48 65
-91 53 -22 -7 -42 -11 -46 -10 -5 1 -8 -2 -8 -7 0 -5 -18 -9 -40 -9 -22 0 -45
-4 -51 -8 -34 -20 20 43 80 94 106 92 176 135 321 200 31 13 32 13 -180 -8z
m-634 -211 c3 -6 15 -9 25 -6 11 3 19 3 19 1 0 -11 -54 -84 -61 -84 -5 0 -9
-6 -9 -13 0 -8 -9 -22 -20 -32 -11 -10 -20 -22 -20 -27 0 -15 -43 -68 -51 -63
-12 8 -17 -19 -5 -30 22 -20 111 -7 128 19 5 8 11 7 20 -2 19 -19 37 -14 50
13 13 30 28 33 28 6 0 -11 -10 -27 -22 -35 -35 -25 -9 -40 68 -39 51 0 69 4
76 17 14 26 29 19 16 -9 -12 -26 -14 -27 -154 -50 -50 -9 -106 -20 -125 -25
-19 -6 -61 -10 -95 -10 -53 0 -62 3 -67 20 -3 11 -1 20 4 20 5 0 9 7 9 17 0 9
11 31 25 48 13 18 21 36 17 40 -4 3 1 11 10 16 10 5 20 25 24 44 4 25 11 35
25 35 26 0 24 30 -1 37 -20 5 -20 7 -4 24 12 14 13 19 4 19 -9 0 -8 6 5 20 10
11 26 20 37 20 10 0 18 5 18 10 0 13 17 13 26 -1z m-214 -6 c-12 -3 -28 -13
-35 -24 -11 -17 -37 -27 -37 -13 0 19 43 43 75 42 16 -1 16 -2 -3 -5z m-207
-52 c-3 -6 -14 -11 -23 -11 -15 1 -15 2 2 15 21 16 32 13 21 -4z m537 -53 c-7
-7 -12 -8 -12 -2 0 14 12 26 19 19 2 -3 -1 -11 -7 -17z m8 -38 c0 -10 -9 -24
-20 -30 -21 -11 -23 -8 -14 28 8 27 34 29 34 2z m970 -281 c0 -5 -3 -8 -7 -7
-5 0 -25 -6 -45 -15 -42 -19 -88 -19 -81 0 3 6 16 16 29 20 34 11 104 12 104
2z m-1170 -79 c0 -13 -5 -18 -15 -14 -12 5 -13 10 -4 20 15 19 19 18 19 -6z
m275 -80 c-3 -5 -21 -10 -38 -9 -31 1 -31 1 -7 9 36 11 52 11 45 0z m-180 -75
c-1 -14 -4 -27 -6 -29 -10 -9 -49 -17 -49 -10 0 7 50 64 56 64 1 0 1 -11 -1
-25z m-102 -87 c-5 -62 -19 -88 -50 -88 -9 0 -12 8 -7 28 3 15 6 37 6 50 0 15
6 22 19 22 12 0 19 7 19 18 0 16 8 32 15 32 1 0 0 -28 -2 -62z m-53 -18 c0 -5
-5 -10 -11 -10 -5 0 -7 5 -4 10 3 6 8 10 11 10 2 0 4 -4 4 -10z m106 -15 c-21
-16 -32 -13 -21 4 3 6 14 11 23 11 15 -1 15 -2 -2 -15z m44 -80 c0 -8 -4 -15
-10 -15 -5 0 -7 7 -4 15 4 8 8 15 10 15 2 0 4 -7 4 -15z"/>
<path d="M4710 2449 c0 -4 -17 -10 -37 -12 -28 -3 -25 -4 11 -3 27 0 51 6 53
12 2 6 -3 11 -12 11 -8 0 -15 -4 -15 -8z"/>
<path d="M3047 2389 c7 -7 15 -10 18 -7 3 3 -2 9 -12 12 -14 6 -15 5 -6 -5z"/>
<path d="M3395 2330 c3 -5 15 -10 26 -10 11 0 17 5 14 10 -3 6 -15 10 -26 10
-11 0 -17 -4 -14 -10z"/>
<path d="M3324 2302 c-17 -11 -66 -93 -60 -100 8 -7 47 29 41 38 -2 4 5 17 16
29 21 22 23 46 3 33z"/>
<path d="M1360 2282 l-23 -19 21 -5 c25 -7 51 17 35 33 -6 6 -18 3 -33 -9z"/>
<path d="M4520 2103 c-64 -12 -46 -47 18 -37 42 7 56 27 26 38 -9 3 -16 5 -17
5 -1 -1 -13 -4 -27 -6z"/>
<path d="M1820 2053 c0 -28 3 -34 10 -23 13 20 13 60 0 60 -5 0 -10 -17 -10
-37z"/>
<path d="M1880 2060 c0 -25 16 -44 25 -30 4 7 0 19 -9 28 -13 14 -16 14 -16 2z"/>
<path d="M2914 2038 c-3 -5 -4 -10 -3 -12 38 -25 63 -36 81 -36 l23 0 -25 23
c-29 27 -67 40 -76 25z"/>
<path d="M1510 2020 c0 -6 7 -22 16 -35 15 -24 15 -25 -3 -25 -11 0 -33 4 -49
9 -16 5 -45 12 -64 15 -29 5 -32 4 -16 -5 10 -7 41 -17 68 -25 28 -7 58 -20
68 -29 11 -10 38 -19 62 -21 54 -5 113 -27 203 -76 39 -20 80 -39 90 -41 29
-5 155 -69 155 -78 0 -5 15 -11 34 -14 18 -4 59 -24 91 -46 64 -43 92 -51 76
-21 -5 10 -17 24 -25 31 -9 8 -13 18 -9 24 3 6 1 7 -6 3 -15 -10 -193 169
-220 222 -21 39 -47 25 -42 -23 1 -16 -169 0 -210 19 -19 9 -45 23 -59 31 -14
7 -34 17 -44 20 -15 4 -16 9 -8 17 9 9 2 17 -26 34 -39 24 -82 31 -82 14z"/>
<path d="M2952 1953 c-6 -2 -10 -9 -6 -14 3 -5 -2 -9 -10 -9 -23 0 -19 -21 5
-27 14 -4 19 -12 16 -24 -6 -24 5 -24 26 -1 19 21 22 42 6 42 -6 0 -9 9 -6 20
5 20 -5 24 -31 13z"/>
<path d="M3388 1933 c7 -3 16 -2 19 1 4 3 -2 6 -13 5 -11 0 -14 -3 -6 -6z"/>
<path d="M3832 1858 c5 -15 28 -18 29 -3 0 6 -7 12 -17 13 -10 3 -15 -1 -12
-10z"/>
<path d="M1565 1840 c3 -5 11 -10 16 -10 6 0 7 5 4 10 -3 6 -11 10 -16 10 -6
0 -7 -4 -4 -10z"/>
<path d="M3025 1800 c-43 -20 -38 -26 29 -32 28 -3 34 -2 24 6 -7 6 -12 19
-10 29 4 21 6 21 -43 -3z"/>
<path d="M3010 1600 c-13 -8 -13 -10 2 -10 9 0 19 -6 21 -12 4 -10 6 -10 6 0
1 6 8 12 16 12 8 0 15 5 15 10 0 13 -40 13 -60 0z"/>
<path d="M3342 1370 c-20 -26 -20 -30 -6 -30 18 0 43 27 44 48 0 21 -15 14
-38 -18z"/>
<path d="M2530 1361 c0 -5 19 -11 43 -14 23 -2 56 -7 72 -11 l30 -7 -33 21
c-33 20 -112 28 -112 11z"/>
<path d="M3455 1349 c4 -11 0 -35 -10 -55 -21 -45 -31 -104 -17 -104 14 0 43
87 35 107 -5 12 -1 14 15 8 20 -6 22 -3 22 29 0 32 -3 36 -26 36 -21 0 -24 -3
-19 -21z"/>
<path d="M3795 1360 c-16 -4 -41 -13 -55 -19 l-25 -12 25 6 c14 4 55 9 93 12
37 3 67 10 67 14 0 11 -63 10 -105 -1z"/>
<path d="M3912 1358 c3 -7 12 -14 21 -16 12 -2 15 1 11 12 -7 19 -38 22 -32 4z"/>
<path d="M3683 1320 c-13 -5 -23 -12 -23 -15 0 -10 44 2 48 13 4 14 4 14 -25
2z"/>
<path d="M3527 1203 c-4 -3 -7 -11 -7 -17 0 -6 5 -5 12 2 6 6 9 14 7 17 -3 3
-9 2 -12 -2z"/>
<path d="M3164 849 c3 -46 9 -122 12 -169 8 -120 17 -130 25 -25 3 50 10 116
14 148 7 48 5 57 -8 57 -9 0 -18 12 -22 30 -4 16 -11 33 -17 36 -8 5 -9 -18
-4 -77z"/>
</g>
</svg>
